<svg width="40" height="40" xmlns="http://www.w3.org/2000/svg">

 <g>
  <title>background</title>
  <rect fill="none" id="canvas_background" height="402" width="582" y="-1" x="-1"/>
 </g>
 <g>
  <title>Layer 1</title>
  <path fill="#ffffff" id="svg_1" fill-rule="evenodd" clip-rule="evenodd" d="m5.207,30.984l1.599,0c1.212,0 2.2,0.988 2.2,2.199l0,2.7c0,0.605 -0.494,1.099 -1.1,1.099l-3.799,0c-0.606,0 -1.1,-0.493 -1.1,-1.099l0,-2.7c0,-1.21 0.988,-2.199 2.2,-2.199l0,0zm27.993,-27.994l1.599,0c1.212,0 2.2,0.987 2.2,2.2l0,30.693c0,0.605 -0.494,1.099 -1.1,1.099l-3.799,0c-0.606,0 -1.1,-0.493 -1.1,-1.099l0,-30.693c0,-1.212 0.989,-2.2 2.2,-2.2l0,0zm-6.998,6.999l1.599,0c1.211,0 2.2,0.988 2.2,2.2l0,23.695c0,0.605 -0.494,1.099 -1.1,1.099l-3.799,0c-0.606,0 -1.1,-0.493 -1.1,-1.099l0,-23.696c0,-1.211 0.988,-2.199 2.2,-2.199l0,0zm-6.998,6.998l1.599,0c1.211,0 2.2,0.989 2.2,2.201l0,16.696c0,0.605 -0.494,1.099 -1.1,1.099l-3.799,0c-0.606,0 -1.1,-0.493 -1.1,-1.099l0,-16.696c-0.001,-1.212 0.988,-2.201 2.2,-2.201l0,0zm-6.998,6.998l1.599,0c1.212,0 2.2,0.989 2.2,2.2l0,9.733c0,0.606 -0.494,1.1 -1.1,1.1l-3.798,0c-0.606,0 -1.1,-0.494 -1.1,-1.1l0,-9.732c-0.002,-1.212 0.987,-2.201 2.199,-2.201z"/>
 </g>
</svg>