<svg width="40" height="40" xmlns="http://www.w3.org/2000/svg">

 <g>
  <title>background</title>
  <rect fill="none" id="canvas_background" height="402" width="582" y="-1" x="-1"/>
 </g>
 <g>
  <title>Layer 1</title>
  <path fill="#ffffff" id="svg_1" fill-rule="evenodd" clip-rule="evenodd" d="m9.006,17.904l7.557,-6.665c0.268,-0.229 0.619,-0.277 0.939,-0.13c0.318,0.147 0.512,0.448 0.512,0.799l0,6.09l7.541,-6.759c0.268,-0.229 0.621,-0.277 0.939,-0.13c0.32,0.147 0.512,0.448 0.512,0.799l0,6.09l7.541,-6.759c0.268,-0.229 0.623,-0.277 0.941,-0.13c0.319,0.147 0.512,0.448 0.512,0.799l0,22.887c0,1.211 -0.988,2.198 -2.201,2.198l-28.592,0c-1.213,0 -2.201,-0.987 -2.201,-2.198l0,-26.795l6,0l0,9.904l0,0zm-2.561,6.092c-0.242,0 -0.439,0.198 -0.439,0.441l0,2.12c0,0.242 0.197,0.439 0.439,0.439l2.121,0c0.24,0 0.439,-0.198 0.439,-0.439l0,-2.12c0,-0.243 -0.199,-0.441 -0.439,-0.441l-2.121,0l0,0zm23.996,5.999c-0.242,0 -0.441,0.198 -0.441,0.44l0,2.119c0,0.242 0.199,0.44 0.441,0.44l2.119,0c0.242,0 0.439,-0.198 0.439,-0.44l0,-2.119c0,-0.242 -0.197,-0.44 -0.439,-0.44l-2.119,0l0,0zm-6,0c-0.242,0 -0.439,0.198 -0.439,0.44l0,2.119c0,0.242 0.197,0.44 0.439,0.44l2.119,0c0.244,0 0.439,-0.198 0.439,-0.44l0,-2.119c0,-0.242 -0.195,-0.44 -0.439,-0.44l-2.119,0l0,0zm-6.029,0c-0.242,0 -0.439,0.198 -0.439,0.44l0,2.119c0,0.242 0.197,0.44 0.439,0.44l2.119,0c0.242,0 0.439,-0.198 0.439,-0.44l0,-2.119c0,-0.242 -0.197,-0.44 -0.439,-0.44l-2.119,0l0,0zm-5.967,0c-0.244,0 -0.439,0.198 -0.439,0.44l0,2.119c0,0.242 0.195,0.44 0.439,0.44l2.119,0c0.242,0 0.439,-0.198 0.439,-0.44l0,-2.119c0,-0.242 -0.197,-0.44 -0.439,-0.44l-2.119,0l0,0zm17.996,-5.999c-0.242,0 -0.441,0.198 -0.441,0.441l0,2.12c0,0.242 0.199,0.439 0.441,0.439l2.119,0c0.242,0 0.439,-0.198 0.439,-0.439l0,-2.12c0,-0.243 -0.197,-0.441 -0.439,-0.441l-2.119,0l0,0zm-6,0c-0.242,0 -0.439,0.198 -0.439,0.441l0,2.12c0,0.242 0.197,0.439 0.439,0.439l2.119,0c0.242,0 0.439,-0.198 0.439,-0.439l0,-2.12c0,-0.243 -0.197,-0.441 -0.439,-0.441l-2.119,0l0,0zm-6.029,0c-0.242,0 -0.439,0.198 -0.439,0.441l0,2.12c0,0.242 0.197,0.439 0.439,0.439l2.119,0c0.242,0 0.439,-0.198 0.439,-0.439l0,-2.12c0,-0.243 -0.197,-0.441 -0.439,-0.441l-2.119,0l0,0zm-5.967,0c-0.244,0 -0.439,0.198 -0.439,0.441l0,2.12c0,0.242 0.195,0.439 0.439,0.439l2.119,0c0.242,0 0.439,-0.198 0.439,-0.439l0,-2.12c0,-0.243 -0.197,-0.441 -0.439,-0.441l-2.119,0l0,0zm-6,5.999c-0.242,0 -0.439,0.198 -0.439,0.44l0,2.119c0,0.242 0.197,0.44 0.439,0.44l2.121,0c0.24,0 0.439,-0.198 0.439,-0.44l0,-2.119c0,-0.242 -0.199,-0.44 -0.439,-0.44l-2.121,0l0,0zm-3.439,-23.994l0,-1.459c0,-0.848 0.693,-1.54 1.541,-1.54l2.918,0c0.848,0 1.541,0.692 1.541,1.54l0,1.459l-6,0z"/>
 </g>
</svg>