<svg width="40" height="40" xmlns="http://www.w3.org/2000/svg">

 <g>
  <title>background</title>
  <rect fill="none" id="canvas_background" height="402" width="582" y="-1" x="-1"/>
 </g>
 <g>
  <title>Layer 1</title>
  <path fill="#ffffff" id="svg_1" fill-rule="evenodd" clip-rule="evenodd" d="m4.529,4.01l1.459,0l0,17.997l-1.459,0c-0.849,0 -1.541,-0.692 -1.541,-1.54l0,-14.917c0,-0.848 0.693,-1.54 1.541,-1.54l0,0zm27.572,23.775c2.755,0 4.989,1.12 4.989,2.5c0,1.38 -2.234,2.5 -4.989,2.5s-4.989,-1.119 -4.989,-2.5c-0.001,-1.381 2.234,-2.5 4.989,-2.5l0,0zm-7.127,-1.829c0,1.38 -2.233,2.499 -4.988,2.499s-4.989,-1.119 -4.989,-2.499c0,-0.795 0,-1.205 0,-2c0,-0.076 0.008,-0.15 0.021,-0.225c0.228,1.275 2.365,2.274 4.969,2.274s4.741,-0.999 4.969,-2.274c0.013,0.075 0.02,0.149 0.02,0.225c-0.002,0.794 -0.002,1.204 -0.002,2l0,0zm0,4.273c0,-0.795 0,-1.205 0,-1.999c0,-0.076 -0.007,-0.151 -0.02,-0.226c-0.228,1.276 -2.365,2.275 -4.969,2.275s-4.741,-0.999 -4.969,-2.275c-0.013,0.075 -0.021,0.149 -0.021,0.226c0,0.794 0,1.204 0,1.999c0,1.381 2.234,2.5 4.989,2.5s4.99,-1.119 4.99,-2.5l0,0zm-4.989,-11.112c-2.755,0 -4.989,1.119 -4.989,2.499c0,1.38 2.234,2.5 4.989,2.5s4.988,-1.119 4.988,-2.5c0.001,-1.38 -2.233,-2.499 -4.988,-2.499l0,0zm16.996,15.386c0,-0.795 0,-1.204 0,-1.999c0,-0.076 -0.007,-0.151 -0.021,-0.226c-0.227,1.276 -2.365,2.275 -4.969,2.275s-4.741,-0.999 -4.969,-2.275c-0.013,0.075 -0.02,0.15 -0.02,0.226c0,0.795 0,1.204 0,1.999c0,1.381 2.233,2.5 4.988,2.5s4.991,-1.119 4.991,-2.5l0,0zm-12.007,0c0,1.381 -2.233,2.5 -4.988,2.5s-4.989,-1.119 -4.989,-2.5c0,-0.795 0,-1.204 0,-1.999c0,-0.076 0.008,-0.151 0.021,-0.226c0.228,1.276 2.365,2.275 4.969,2.275s4.741,-0.999 4.969,-2.275c0.013,0.075 0.02,0.15 0.02,0.226c-0.002,0.795 -0.002,1.204 -0.002,1.999l0,0zm-12.007,-4.274c0,1.381 -2.233,2.5 -4.988,2.5s-4.989,-1.119 -4.989,-2.5c0,-0.795 0,-1.205 0,-1.999c0,-0.076 0.007,-0.151 0.021,-0.226c0.227,1.276 2.365,2.275 4.969,2.275s4.742,-0.999 4.969,-2.275c0.013,0.075 0.02,0.149 0.02,0.226c-0.002,0.794 -0.002,1.204 -0.002,1.999l0,0zm-4.988,-6.894c-2.755,0 -4.989,1.12 -4.989,2.5c0,1.38 2.234,2.5 4.989,2.5s4.988,-1.119 4.988,-2.5c0,-1.38 -2.234,-2.5 -4.988,-2.5l0,0zm4.988,11.168c0,-0.795 0,-1.204 0,-1.999c0,-0.076 -0.007,-0.151 -0.02,-0.226c-0.227,1.276 -2.365,2.275 -4.969,2.275s-4.742,-0.999 -4.969,-2.275c-0.014,0.075 -0.021,0.15 -0.021,0.226c0,0.795 0,1.204 0,1.999c0,1.381 2.234,2.5 4.989,2.5s4.99,-1.119 4.99,-2.5l0,0zm1.019,-30.493l21.455,0c0.848,0 1.54,0.692 1.54,1.54l0,14.917c0,0.848 -0.692,1.54 -1.54,1.54l-8.277,0l0,-0.111c0,-0.055 0,-0.085 -0.001,-0.108c0.001,-0.02 0.001,-0.046 0.001,-0.081c0,-1.727 -1.214,-3.002 -2.676,-3.734c-1.365,-0.683 -2.996,-0.965 -4.514,-0.965c-1.516,0 -3.148,0.282 -4.512,0.965c-0.543,0.272 -1.051,0.619 -1.477,1.036l0,-14.999l0.001,0z"/>
 </g>
</svg>